<?xml version="1.0" standalone="no"?>
<!DOCTYPE svg PUBLIC "-//W3C//DTD SVG 20010904//EN"
 "http://www.w3.org/TR/2001/REC-SVG-20010904/DTD/svg10.dtd">
<svg version="1.0" xmlns="http://www.w3.org/2000/svg"
 width="530.000000pt" height="530.000000pt" viewBox="0 0 530.000000 530.000000"
 preserveAspectRatio="xMidYMid meet">
<metadata>
Created by potrace 1.14, written by Peter Selinger 2001-2017
</metadata>
<g transform="translate(0.000000,530.000000) scale(0.100000,-0.100000)"
fill="#000000" stroke="none">
<path d="M0 2650 l0 -2650 2650 0 2650 0 0 2650 0 2650 -2650 0 -2650 0 0
-2650z m2741 2425 c231 -37 415 -125 569 -272 47 -45 59 -49 90 -33 11 6 59
17 107 26 341 61 760 -139 973 -464 49 -75 84 -155 115 -265 15 -53 21 -60 68
-87 120 -68 231 -184 296 -309 77 -150 107 -307 91 -490 -6 -66 -18 -140 -26
-163 -9 -24 -17 -86 -19 -138 -5 -151 -54 -265 -166 -385 -73 -78 -148 -130
-252 -175 -42 -19 -76 -36 -74 -39 14 -26 51 -113 64 -153 26 -80 14 -190 -31
-284 -42 -89 -139 -192 -226 -241 -61 -35 -202 -77 -231 -70 -15 4 -17 2 -10
-12 10 -18 8 -37 -21 -171 -67 -315 -257 -596 -521 -774 -70 -47 -142 -84
-292 -151 -68 -30 -243 -75 -353 -91 -160 -22 -455 -15 -594 15 -107 23 -304
89 -383 128 -133 67 -359 227 -351 249 3 7 -3 18 -12 26 -15 12 -16 11 -3 -5
31 -39 -9 -13 -56 36 -58 62 -80 95 -36 54 l31 -29 -2 43 c-1 28 -6 44 -16 46
-9 3 -11 1 -4 -4 8 -6 15 -53 8 -53 0 0 -9 9 -19 20 -18 20 -18 21 1 14 17 -7
17 -6 5 9 -11 14 -9 21 18 47 19 19 36 28 43 24 7 -4 5 2 -4 12 -16 18 -16 23
-4 40 13 18 15 17 24 -16 6 -19 11 -29 11 -22 1 7 5 11 10 7 6 -3 -10 27 -34
67 -56 92 -120 248 -147 358 -16 65 -22 129 -26 276 -4 173 -3 192 13 205 10
8 33 28 51 46 19 17 34 29 34 25 0 -3 9 3 19 12 12 11 49 21 98 27 114 15 177
36 247 84 60 41 102 61 119 57 4 -1 7 2 7 7 0 4 12 6 28 3 25 -5 26 -4 12 14
-8 10 2 4 23 -13 44 -38 95 -66 155 -83 23 -7 42 -18 42 -23 0 -6 22 -7 58 -3
39 4 52 3 42 -4 -22 -14 -4 -12 36 5 19 8 41 12 49 9 16 -7 85 24 101 45 10
13 19 10 65 -22 68 -47 136 -67 223 -67 75 0 191 24 216 45 8 7 24 15 35 19
11 3 35 20 54 36 39 35 41 35 67 15 22 -17 38 -20 29 -5 -3 6 1 7 9 4 9 -3 14
-10 11 -14 -3 -5 15 -16 40 -25 24 -10 42 -21 40 -25 -12 -19 173 -75 214 -65
17 3 21 2 13 -3 -11 -8 -11 -10 1 -15 33 -12 213 -18 240 -8 17 7 27 7 27 1 0
-6 8 -10 19 -10 24 0 38 -51 52 -204 6 -65 14 -128 19 -140 7 -19 9 -19 15 -3
4 9 14 17 22 17 8 0 11 -5 8 -10 -4 -6 7 -10 24 -10 18 0 31 5 31 13 1 7 6 5
14 -5 7 -10 16 -15 19 -11 4 3 7 0 8 -8 1 -8 5 -3 9 11 8 24 8 24 9 3 1 -15 6
-21 15 -17 8 3 12 12 9 20 -3 8 0 14 6 14 6 0 12 -17 12 -37 2 -33 3 -34 6 -9
4 23 7 26 14 15 7 -10 9 -8 7 11 -3 23 2 26 56 37 130 27 226 94 285 198 74
131 77 237 11 374 -41 85 -44 102 -28 168 9 38 13 41 52 47 82 13 200 80 275
158 65 67 99 147 111 264 6 54 18 141 26 191 29 162 4 468 -39 495 -7 4 -9 8
-4 8 8 0 -19 70 -32 83 -5 5 -12 3 -16 -4 -5 -7 -4 -10 2 -6 6 4 17 -16 27
-46 18 -59 15 -114 -5 -108 -8 2 -22 4 -31 5 -10 0 -18 5 -18 11 -1 5 -7 -1
-15 -15 -13 -23 -14 -23 -15 -5 0 12 -9 38 -20 60 -11 22 -20 43 -20 48 0 11
-49 77 -75 100 -53 48 -159 98 -281 132 -6 2 -14 38 -18 82 -8 95 -25 154 -73
250 -43 85 -172 231 -193 218 -8 -5 -11 -4 -6 3 15 24 -155 122 -257 146 -103
26 -155 29 -237 17 -73 -11 -191 -60 -267 -111 -23 -15 -33 -18 -39 -9 -5 8
-3 9 5 4 9 -5 12 -2 9 11 -2 11 -9 18 -16 17 -7 -2 -9 4 -5 14 4 11 3 14 -5 9
-8 -4 -10 -2 -6 7 3 8 1 18 -4 21 -5 3 -12 -4 -16 -17 -5 -20 -9 -18 -53 32
-56 63 -172 160 -228 189 -22 11 -70 35 -107 52 -63 29 -85 49 -55 51 10 0 10
2 0 6 -7 2 -13 10 -13 17 0 7 -12 17 -27 23 -26 10 -25 10 12 6 l40 -5 -29 24
c-32 27 -29 32 24 44 l35 8 -55 13 c-65 17 -343 29 -425 18 l-56 -7 24 -22
c17 -16 28 -41 36 -88 16 -95 18 -92 -36 -84 -212 31 -316 25 -462 -23 -47
-16 -78 -23 -69 -17 14 10 13 13 -8 23 -15 7 -26 8 -30 1 -4 -5 -13 -4 -22 5
-10 8 -30 13 -47 11 -28 -4 -29 -3 -11 11 26 20 31 19 57 -7 l21 -23 -11 23
c-17 32 -35 36 -72 18 -18 -9 -34 -14 -37 -12 -6 6 181 96 200 96 8 0 19 5 24
10 6 6 48 19 95 30 71 17 76 19 29 14 -30 -3 -97 -20 -149 -37 -267 -87 -489
-307 -525 -520 l-12 -72 -53 -7 c-135 -20 -293 -110 -415 -238 -91 -95 -131
-154 -171 -249 -52 -124 -69 -210 -69 -351 -1 -105 3 -136 22 -195 30 -89 42
-112 115 -217 34 -48 58 -90 55 -94 -4 -3 -36 -12 -72 -21 -80 -18 -165 -76
-220 -152 -101 -137 -116 -392 -34 -556 99 -197 349 -345 586 -345 77 0 86 -7
77 -59 -6 -39 -9 -42 -33 -37 -15 3 -74 8 -132 11 l-105 6 30 -25 c53 -46 118
-80 185 -97 l65 -17 3 -46 3 -47 -38 7 c-141 25 -299 120 -359 215 -16 27 -46
49 -105 81 -147 77 -272 224 -319 376 -86 277 -9 574 192 733 26 20 53 39 60
41 9 3 1 29 -29 89 -64 127 -86 219 -87 369 0 148 20 254 71 374 73 172 215
342 373 448 91 60 108 69 210 102 l65 22 50 100 c86 172 166 266 320 376 177
126 448 204 810 232 89 7 330 -4 426 -19z m-1143 -358 c-7 -8 -19 -14 -26 -14
-11 0 -10 4 4 14 10 7 22 13 26 13 5 0 3 -6 -4 -13z m-57 -20 c-6 -8 -9 -16
-6 -19 3 -2 -2 -5 -10 -5 -13 0 -13 3 2 19 19 21 31 25 14 5z m287 -129 c29
-29 -10 -85 -51 -74 -34 8 -40 30 -16 60 22 28 48 33 67 14z m1629 -124 c-3
-3 -12 -4 -19 -1 -8 3 -5 6 6 6 11 1 17 -2 13 -5z m421 -15 c12 -5 22 -6 22
-2 0 3 8 -1 18 -9 9 -9 31 -20 47 -26 l30 -10 -27 -11 c-16 -6 -28 -13 -28
-16 0 -4 4 -4 9 0 5 3 12 1 15 -4 7 -10 -20 -9 -30 2 -4 4 -18 7 -31 7 -14 0
-33 5 -43 10 -15 8 -18 7 -14 -3 3 -8 -2 -17 -10 -20 -14 -6 -21 8 -17 35 0 4
-8 10 -19 13 -11 4 -20 11 -20 16 0 5 -10 9 -22 10 -18 0 -15 3 12 13 34 13
62 11 108 -5z m-1579 -10 c60 -11 187 -65 216 -92 7 -7 22 -19 34 -27 41 -29
20 -29 -33 -1 -98 53 -178 72 -299 70 -120 -2 -203 -22 -265 -64 -43 -29 -57
-32 -48 -8 6 14 3 14 -16 -3 -23 -19 -23 -19 -8 1 8 11 19 23 25 27 5 4 7 9 4
13 -3 3 -16 -4 -29 -15 -13 -11 -26 -20 -29 -20 -3 0 6 11 21 24 18 16 35 23
50 19 16 -3 19 -2 10 5 -15 10 18 29 98 55 89 30 163 34 269 16z m1706 -58
c-3 -6 -11 -11 -16 -11 -5 0 -4 6 3 14 14 16 24 13 13 -3z m85 -64 c0 -2 -9
-12 -20 -22 -24 -21 -27 -14 -4 9 15 15 24 20 24 13z m-2250 -11 c0 -2 -12
-11 -27 -20 l-28 -17 24 20 c23 21 31 25 31 17z m2270 -16 c-24 -15 -36 -11
-14 4 10 8 21 12 24 10 2 -3 -2 -9 -10 -14z m-2230 -4 c0 -2 -7 -7 -16 -10 -8
-3 -12 -2 -9 4 6 10 25 14 25 6z m1734 -359 c106 -50 137 -75 196 -159 52 -74
60 -94 35 -84 -9 3 -15 0 -15 -9 0 -16 -18 -30 -28 -20 -3 3 0 10 8 15 8 5 11
13 6 17 -4 4 -19 -5 -33 -21 -19 -22 -23 -36 -19 -58 3 -15 4 -28 2 -28 -2 0
-22 28 -44 63 -50 75 -72 99 -137 153 -67 56 -115 78 -210 99 -57 12 -98 15
-145 11 -84 -9 -88 -10 -134 -30 -22 -9 -43 -13 -48 -8 -12 12 72 49 177 77
75 21 108 24 200 22 103 -3 115 -5 189 -40z m-614 -81 c0 -2 -8 -10 -17 -17
-16 -13 -17 -12 -4 4 13 16 21 21 21 13z m1757 -388 c-3 -8 -6 -5 -6 6 -1 11
2 17 5 13 3 -3 4 -12 1 -19z m-832 -96 c119 -60 210 -147 264 -252 55 -106 71
-168 71 -274 0 -91 -9 -124 -28 -112 -15 9 -23 -21 -12 -50 7 -17 7 -23 0 -19
-6 3 -10 1 -10 -5 0 -6 -4 -9 -9 -6 -4 3 -22 -23 -39 -57 -30 -63 -57 -95 -68
-84 -4 3 7 23 23 44 55 70 83 207 61 303 -12 51 -13 53 -19 25 -6 -28 -7 -29
-14 -7 -5 16 -15 22 -39 23 -29 1 -30 1 -6 8 22 6 23 8 7 14 -27 10 -67 9 -67
-3 0 -5 -5 -10 -11 -10 -5 0 -7 5 -4 10 4 6 -15 10 -49 10 -34 0 -56 5 -59 13
-4 9 -8 8 -16 -3 -9 -12 -12 -13 -20 -1 -6 9 -11 10 -15 2 -4 -6 -17 -11 -30
-11 -18 0 -25 -10 -41 -57 -22 -63 -92 -165 -127 -185 -13 -7 -36 -13 -53 -14
l-29 -2 24 13 c60 32 143 179 160 282 22 132 -2 303 -55 400 l-23 42 37 3 c44
4 155 -19 196 -40z m155 -892 c0 -34 -1 -35 -37 -39 -7 0 -10 -8 -7 -16 4 -8
1 -15 -5 -15 -6 0 -11 5 -11 11 0 5 -5 7 -11 3 -8 -4 -7 -9 2 -15 7 -4 10 -11
6 -16 -5 -4 -12 -1 -16 6 -5 8 -14 10 -21 6 -9 -6 -9 -9 -1 -15 7 -3 -1 -7
-16 -7 -15 0 -59 -15 -98 -33 -41 -19 -91 -35 -120 -37 l-50 -3 65 19 c140 41
191 65 248 118 63 58 72 62 72 33z m-16 -56 c3 -8 2 -12 -4 -9 -6 3 -10 10
-10 16 0 14 7 11 14 -7z m-49 -58 c-11 -7 -31 -16 -45 -20 -14 -3 -19 -3 -12
0 6 3 10 9 7 14 -3 4 3 6 14 3 10 -3 22 0 25 6 4 6 12 11 19 11 6 0 3 -6 -8
-14z m-76 -10 c-2 -2 -17 -6 -34 -10 -22 -5 -26 -4 -15 4 14 9 59 15 49 6z
m446 -35 c-8 -17 -19 -33 -25 -36 -5 -3 -1 10 11 29 25 43 36 48 14 7z m-445
14 c0 -6 -102 -36 -107 -31 -2 2 15 10 39 19 46 16 68 20 68 12z m-384 -22
c-7 -7 -108 -5 -115 3 -2 2 24 4 59 4 35 0 60 -3 56 -7z m41 -9 c-3 -3 -12 -4
-19 -1 -8 3 -5 6 6 6 11 1 17 -2 13 -5z m782 -215 c6 -18 11 -60 11 -94 0 -89
-54 -189 -121 -223 -22 -12 -35 -11 -88 4 -49 13 -65 14 -71 5 -9 -16 -20 9
-20 44 0 18 10 29 38 42 61 28 145 120 163 178 10 34 23 54 39 62 35 18 37 17
49 -18z m279 -954 c48 -167 62 -233 62 -285 0 -50 -22 -151 -28 -126 -3 14 -8
10 -21 -20 -43 -94 -116 -147 -231 -165 -94 -14 -425 -8 -442 9 -9 9 -8 12 5
12 10 0 20 6 23 14 3 8 19 20 35 26 20 9 36 27 49 56 11 24 20 45 20 49 0 5
36 67 88 153 12 20 25 45 28 55 4 9 12 17 19 17 8 0 17 9 20 21 4 11 12 18 19
16 8 -3 18 9 26 29 12 30 22 39 34 32 3 -2 15 7 29 20 15 14 30 20 40 16 12
-4 17 -1 17 11 0 15 8 17 55 13 41 -4 55 -1 55 9 0 23 18 14 24 -12 4 -14 11
-25 16 -25 8 0 13 80 12 190 0 3 -3 16 -6 30 -5 18 -4 21 2 10 6 -8 28 -78 50
-155z m-3348 -75 c6 -11 8 -20 6 -20 -3 0 -10 9 -16 20 -6 11 -8 20 -6 20 3 0
10 -9 16 -20z m-684 -223 c2 -39 14 -77 36 -119 18 -35 34 -67 36 -73 6 -17
-64 59 -77 84 -18 33 -28 175 -12 170 7 -3 14 -28 17 -62z m181 -263 c-3 -3
-12 -4 -19 -1 -8 3 -5 6 6 6 11 1 17 -2 13 -5z"/>
<path d="M2193 4913 c9 -2 25 -2 35 0 9 3 1 5 -18 5 -19 0 -27 -2 -17 -5z"/>
<path d="M2028 4903 c12 -2 32 -2 45 0 12 2 2 4 -23 4 -25 0 -35 -2 -22 -4z"/>
<path d="M1695 4780 c3 -5 14 -10 23 -10 15 0 15 2 2 10 -20 13 -33 13 -25 0z"/>
<path d="M1720 4756 c0 -2 16 -14 36 -25 40 -24 59 -23 22 1 -25 16 -58 29
-58 24z"/>
<path d="M1807 4729 c7 -7 15 -10 18 -7 3 3 -2 9 -12 12 -14 6 -15 5 -6 -5z"/>
<path d="M3180 4523 c0 -6 8 -17 18 -24 16 -13 16 -13 2 6 -8 11 -16 22 -17
24 -2 2 -3 0 -3 -6z"/>
<path d="M2078 1955 c-30 -17 -68 -88 -68 -130 0 -42 36 -110 66 -123 89 -41
184 23 184 125 0 102 -99 172 -182 128z"/>
<path d="M3013 1948 c-43 -31 -63 -68 -63 -117 0 -82 42 -137 113 -147 64 -10
137 64 137 139 0 107 -110 181 -187 125z"/>
<path d="M4065 1489 c-4 -6 -5 -12 -2 -15 2 -3 7 2 10 11 7 17 1 20 -8 4z"/>
<path d="M1964 1156 c27 -107 133 -229 246 -284 75 -36 222 -68 360 -78 219
-15 471 52 584 156 66 61 146 230 109 230 -5 0 -44 -11 -88 -25 -317 -100
-837 -98 -1129 4 -78 28 -90 27 -82 -3z m931 -305 c17 -7 13 -11 -25 -22 -82
-25 -551 -13 -505 13 6 3 44 -1 85 -8 41 -8 91 -11 110 -7 36 7 91 7 167 0 24
-2 59 2 78 9 20 6 46 10 58 7 18 -4 19 -3 7 6 -17 12 -4 13 25 2z"/>
<path d="M1515 990 c-3 -5 -1 -10 4 -10 6 0 11 5 11 10 0 6 -2 10 -4 10 -3 0
-8 -4 -11 -10z"/>
<path d="M1570 955 c0 -5 5 -17 10 -25 5 -8 10 -10 10 -5 0 6 -5 17 -10 25 -5
8 -10 11 -10 5z"/>
<path d="M1495 811 c-6 -10 21 -41 36 -41 5 0 9 5 9 11 0 5 -5 7 -12 3 -7 -5
-9 -2 -5 9 4 12 2 14 -10 10 -11 -4 -14 -2 -9 5 4 7 5 12 2 12 -3 0 -7 -4 -11
-9z"/>
<path d="M1790 4565 c0 -5 5 -17 10 -25 5 -8 10 -10 10 -5 0 6 -5 17 -10 25
-5 8 -10 11 -10 5z"/>
<path d="M1765 4541 c-3 -6 -1 -11 5 -11 7 0 10 -7 7 -14 -4 -10 -1 -13 9 -9
12 4 12 8 2 22 -7 9 -13 17 -14 19 -1 2 -5 -1 -9 -7z"/>
<path d="M3788 4423 c7 -3 16 -2 19 1 4 3 -2 6 -13 5 -11 0 -14 -3 -6 -6z"/>
<path d="M3820 4419 c0 -5 4 -8 9 -5 5 4 11 1 13 -6 3 -8 7 -6 11 5 5 12 1 17
-13 17 -11 0 -20 -5 -20 -11z"/>
<path d="M3870 4396 c0 -9 5 -16 10 -16 6 0 10 4 10 9 0 6 -4 13 -10 16 -5 3
-10 -1 -10 -9z"/>
<path d="M3635 2660 c-3 -5 -2 -10 4 -10 5 0 13 5 16 10 3 6 2 10 -4 10 -5 0
-13 -4 -16 -10z"/>
<path d="M4612 1000 c0 -14 2 -19 5 -12 2 6 2 18 0 25 -3 6 -5 1 -5 -13z"/>
</g>
</svg>
